<svg id="Layer_1" data-name="Layer 1" xmlns="http://www.w3.org/2000/svg" xmlns:xlink="http://www.w3.org/1999/xlink" viewBox="0 0 1231.93 881.6"><defs><style>.cls-1{fill:none;}.cls-2{fill:url(#linear-gradient);}.cls-3{fill:#80307f;}.cls-4{fill:#994896;}.cls-5{fill:#e54225;}.cls-6{fill:#f9bb16;}.cls-7{fill:#fff;}.cls-8{fill:#5191b7;}.cls-9{fill:#122236;}.cls-10{fill:url(#linear-gradient-2);}.cls-11{fill:#cd234c;}.cls-12{clip-path:url(#clip-path);}.cls-13{fill:url(#New_Gradient_Swatch_2);}</style><linearGradient id="linear-gradient" x1="629.87" y1="880.74" x2="629.87" y2="69.64" gradientUnits="userSpaceOnUse"><stop offset="0" stop-color="#fffce1"/><stop offset="1" stop-color="#fff"/></linearGradient><linearGradient id="linear-gradient-2" x1="641.22" y1="185.2" x2="562.39" y2="48.67" gradientUnits="userSpaceOnUse"><stop offset="0.08" stop-color="#b95a81"/><stop offset="0.87" stop-color="#994896"/></linearGradient><clipPath id="clip-path"><rect class="cls-1" x="225.32" y="69.64" width="809.09" height="811.1" rx="404.54" ry="404.54"/></clipPath><linearGradient id="New_Gradient_Swatch_2" x1="617.28" y1="955.48" x2="617.28" y2="175.51" gradientUnits="userSpaceOnUse"><stop offset="0.29" stop-color="#994896"/><stop offset="0.77" stop-color="#b95a81"/></linearGradient></defs><title>chatavatarpurple</title><rect class="cls-2" x="225.32" y="69.64" width="809.09" height="811.1" rx="404.54" ry="404.54"/><path class="cls-3" d="M480.33,729.9s-171.22,23.43-296.8-48.74q-6.08-3.48-12-7.28s-80.69-61.31-116.35-106a145.46,145.46,0,0,1-8.58-11.81s-23.25-11.26-29.76-37.59a40.77,40.77,0,0,0,7.27-4.37c18.43-13.85,21.9-40.44,8.26-60.22,2.63-4,5.45-8,8.56-11.95a42.1,42.1,0,0,0,37.87-6.27c13.1-9.86,18.66-26.15,15.88-41.85,4.24-2.76,8.51-5.34,12.74-7.7,15.42,11.79,36.74,12.83,52.3,1.14a41,41,0,0,0,12.07-14.62,18.34,18.34,0,0,1,1.94,1.1C203.86,394.49,332.9,550,371.42,559.27S480.33,729.9,480.33,729.9Z"/><path class="cls-4" d="M24.11,514.15a40.77,40.77,0,0,1-7.27,4.37c-3-12.1-2.44-27.38,5.53-46.21a117.65,117.65,0,0,1,10-18.38C46,473.71,42.54,500.3,24.11,514.15Z"/><path class="cls-4" d="M78.8,435.71A42.1,42.1,0,0,1,40.93,442c14.57-18.36,34-35.27,53.75-48.12C97.46,409.56,91.9,425.85,78.8,435.71Z"/><path class="cls-4" d="M107.42,386.16c25.85-14.41,50.64-20.83,64.37-13.48a41,41,0,0,1-12.07,14.62C144.16,399,122.84,398,107.42,386.16Z"/><path class="cls-3" d="M777.85,766.51s173.49,5.92,293-79.83q5.79-4.14,11.39-8.58s75.53-70.17,107.4-118.87c2.92-4.47,5.48-8.76,7.58-12.79,0,0,22.31-13.76,26.56-41a40.33,40.33,0,0,1-7.66-3.65c-19.64-12.07-25.41-38.51-13.44-59.86-3-3.79-6.16-7.54-9.61-11.17-12.42,5.25-26.63,4.86-38.47-2.41-14-8.58-20.93-24.43-19.5-40.55-4.49-2.35-9-4.51-13.42-6.45-14.43,13.48-35.69,16.74-52.27,6.56a40.15,40.15,0,0,1-13.35-13.5,20.59,20.59,0,0,0-1.85,1.32c-28.39,24-144.24,194.11-182,207.47S777.85,766.51,777.85,766.51Z"/><path class="cls-4" d="M1216.16,501.8a40.33,40.33,0,0,0,7.66,3.65c2-12.51.09-27.85-9.51-46a117.11,117.11,0,0,0-11.59-17.49C1190.75,463.29,1196.52,489.73,1216.16,501.8Z"/><path class="cls-4" d="M1154.64,428.36c11.84,7.27,26,7.66,38.47,2.41-16.17-17-37-32-58-43C1133.71,403.93,1140.68,419.78,1154.64,428.36Z"/><path class="cls-4" d="M1121.72,381.36c-27.13-11.85-52.51-15.76-65.62-6.94a40.15,40.15,0,0,0,13.35,13.5C1086,398.1,1107.29,394.84,1121.72,381.36Z"/><path class="cls-5" d="M242.64,29.51S191.35,65.18,162,116.24A236.21,236.21,0,0,1,242.76,85C242.57,34.57,242.64,29.51,242.64,29.51Z"/><path class="cls-6" d="M262.71,171.69c-11.86-12.29-19.71-28.09-19.8-48.51-.06-15-.11-27.54-.15-38.14A236.21,236.21,0,0,0,162,116.24c-18.51,32.19-28.34,70.48-11.06,109.86A173.1,173.1,0,0,0,167,254.93,238.56,238.56,0,0,1,262.71,171.69Z"/><path class="cls-5" d="M310.7,335.7,381.44,214S301,211.34,262.71,171.69A238.56,238.56,0,0,0,167,254.93C218.4,329.45,310.7,335.7,310.7,335.7Z"/><path class="cls-5" d="M943.64-1s51.29,35.67,80.65,86.74a236,236,0,0,0-80.77-31.21C943.71,4,943.64-1,943.64-1Z"/><path class="cls-6" d="M923.57,141.16c11.85-12.29,19.7-28.09,19.79-48.51.07-15,.12-27.54.16-38.14a236,236,0,0,1,80.77,31.21c18.51,32.18,28.34,70.47,11.06,109.85a173.79,173.79,0,0,1-16.09,28.83A238.7,238.7,0,0,0,923.57,141.16Z"/><path class="cls-5" d="M875.57,305.17l-70.74-121.7s80.47-2.66,118.74-42.31a238.7,238.7,0,0,1,95.69,83.24C967.88,298.92,875.57,305.17,875.57,305.17Z"/><circle class="cls-3" cx="613.99" cy="410.53" r="155.71" transform="translate(-110.46 554.4) rotate(-45)"/><circle class="cls-7" cx="600.9" cy="401.81" r="155.71" transform="translate(105.45 928.17) rotate(-80.5)"/><circle class="cls-8" cx="660.78" cy="417.99" r="78.86" transform="translate(-56.44 729.36) rotate(-55.78)"/><path class="cls-9" d="M700.75,410.94a40.59,40.59,0,1,1-47-32.92A40.59,40.59,0,0,1,700.75,410.94Z"/><path class="cls-7" d="M736.16,426.51a25,25,0,1,1-29-20.3A25,25,0,0,1,736.16,426.51Z"/><path class="cls-10" d="M565.76,202s-16.36-43.62-48-61.06-6.55-45.79,8.72-42.52,33.8,73,48,67.6,16.35-63.24-1.09-78.5S557,42.76,581,40.58s32.71,22.9,31.62,40.34-9.81,64.33,3.27,66.51,45.79-16.35,45.79-34.89,18.54-27.25,25.08-21.8,19.62,17.44,8.72,29.43-18.52,11-49.06,38.16c-9.81,8.73-22.9,37.07-22.9,37.07Z"/><path class="cls-9" d="M812.83,568.11s-5.68,12.33-31.47,25.58c7.16,14.62,13.67,28.77,14.52,33.57,2,11.24-27.92,26.57-49.85,24.53-10.51-1-17.57-19.3-22.09-38.58-27.68,6.17-63.65,10.87-110.52,12.14-57.63,1.57-98.18-3.06-126.78-10-2.36,16.58-6,35.55-10.82,40.47-9,9.2-42.87-3.06-51.84-16.34-4.57-6.76,2.21-27.5,10-46.26-11.54-8.64-14-15.62-14-15.62s-115.66,221,183.46,232.14S812.83,568.11,812.83,568.11Z"/><path class="cls-11" d="M611.42,728.41c-67.45-16.64-133.33,10-173.14,32.26,30.38,26.5,81.56,46,165.17,49.12,135.45,5.05,191.16-44,211.58-99.26C710.81,669.61,611.42,728.41,611.42,728.41Z"/><path class="cls-7" d="M424,639.53c9,13.28,42.87,25.54,51.84,16.34,4.81-4.92,8.46-23.89,10.82-40.47-26.73-6.44-43-14.87-52.68-22.13C426.19,612,419.41,632.77,424,639.53Z"/><path class="cls-7" d="M746,651.79c21.93,2,51.85-13.29,49.85-24.53-.85-4.8-7.36-19-14.52-33.57-13.2,6.79-31.71,13.79-57.42,19.52C728.46,632.49,735.52,650.81,746,651.79Z"/><path class="cls-3" d="M573.71,836.35s213.74,40.53,274.13-101.7C847.84,734.65,808.11,883.24,573.71,836.35Z"/><g class="cls-12"><path class="cls-3" d="M480.33,729.9s-171.22,23.43-296.8-48.74q-6.08-3.48-12-7.28s-80.69-61.31-116.35-106a145.46,145.46,0,0,1-8.58-11.81s-23.25-11.26-29.76-37.59a40.77,40.77,0,0,0,7.27-4.37c18.43-13.85,21.9-40.44,8.26-60.22,2.63-4,5.45-8,8.56-11.95a42.1,42.1,0,0,0,37.87-6.27c13.1-9.86,18.66-26.15,15.88-41.85,4.24-2.76,8.51-5.34,12.74-7.7,15.42,11.79,36.74,12.83,52.3,1.14a41,41,0,0,0,12.07-14.62,18.34,18.34,0,0,1,1.94,1.1C203.86,394.49,332.9,550,371.42,559.27S480.33,729.9,480.33,729.9Z"/><path class="cls-4" d="M24.11,514.15a40.77,40.77,0,0,1-7.27,4.37c-3-12.1-2.44-27.38,5.53-46.21a117.65,117.65,0,0,1,10-18.38C46,473.71,42.54,500.3,24.11,514.15Z"/><path class="cls-4" d="M78.8,435.71A42.1,42.1,0,0,1,40.93,442c14.57-18.36,34-35.27,53.75-48.12C97.46,409.56,91.9,425.85,78.8,435.71Z"/><path class="cls-4" d="M107.42,386.16c25.85-14.41,50.64-20.83,64.37-13.48a41,41,0,0,1-12.07,14.62C144.16,399,122.84,398,107.42,386.16Z"/><path class="cls-3" d="M777.85,766.51s173.49,5.92,293-79.83q5.79-4.14,11.39-8.58s75.53-70.17,107.4-118.87c2.92-4.47,5.48-8.76,7.58-12.79,0,0,22.31-13.76,26.56-41a40.33,40.33,0,0,1-7.66-3.65c-19.64-12.07-25.41-38.51-13.44-59.86-3-3.79-6.16-7.54-9.61-11.17-12.42,5.25-26.63,4.86-38.47-2.41-14-8.58-20.93-24.43-19.5-40.55-4.49-2.35-9-4.51-13.42-6.45-14.43,13.48-35.69,16.74-52.27,6.56a40.15,40.15,0,0,1-13.35-13.5,20.59,20.59,0,0,0-1.85,1.32c-28.39,24-144.24,194.11-182,207.47S777.85,766.51,777.85,766.51Z"/><path class="cls-4" d="M1216.16,501.8a40.33,40.33,0,0,0,7.66,3.65c2-12.51.09-27.85-9.51-46a117.11,117.11,0,0,0-11.59-17.49C1190.75,463.29,1196.52,489.73,1216.16,501.8Z"/><path class="cls-4" d="M1154.64,428.36c11.84,7.27,26,7.66,38.47,2.41-16.17-17-37-32-58-43C1133.71,403.93,1140.68,419.78,1154.64,428.36Z"/><path class="cls-4" d="M1121.72,381.36c-27.13-11.85-52.51-15.76-65.62-6.94a40.15,40.15,0,0,0,13.35,13.5C1086,398.1,1107.29,394.84,1121.72,381.36Z"/><path class="cls-5" d="M242.64,29.51S191.35,65.18,162,116.24A236.21,236.21,0,0,1,242.76,85C242.57,34.57,242.64,29.51,242.64,29.51Z"/><path class="cls-6" d="M262.71,171.69c-11.86-12.29-19.71-28.09-19.8-48.51-.06-15-.11-27.54-.15-38.14A236.21,236.21,0,0,0,162,116.24c-18.51,32.19-28.34,70.48-11.06,109.86A173.1,173.1,0,0,0,167,254.93,238.56,238.56,0,0,1,262.71,171.69Z"/><path class="cls-5" d="M310.7,335.7,381.44,214S301,211.34,262.71,171.69A238.56,238.56,0,0,0,167,254.93C218.4,329.45,310.7,335.7,310.7,335.7Z"/><path class="cls-5" d="M943.64-1s51.29,35.67,80.65,86.74a236,236,0,0,0-80.77-31.21C943.71,4,943.64-1,943.64-1Z"/><path class="cls-6" d="M923.57,141.16c11.85-12.29,19.7-28.09,19.79-48.51.07-15,.12-27.54.16-38.14a236,236,0,0,1,80.77,31.21c18.51,32.18,28.34,70.47,11.06,109.85a173.79,173.79,0,0,1-16.09,28.83A238.7,238.7,0,0,0,923.57,141.16Z"/><path class="cls-5" d="M875.57,305.17l-70.74-121.7s80.47-2.66,118.74-42.31a238.7,238.7,0,0,1,95.69,83.24C967.88,298.92,875.57,305.17,875.57,305.17Z"/><path class="cls-13" d="M833.74,194.52C776.26,168,592,169.46,427,197.46s-150.33,219.6-150.33,219.6c-2.95,294.77,63.37,486.36,140,521.73,14.73,6.8,34.71,12.38,58.06,16.69-12.6-26.7-22.07-57.92.92-60.38,40.7-4.36,303.82-26.17,306.73-10.18,2.12,11.65-2.77,41-21.27,65.66,19.84-4.41,38-9.78,53.49-16.21,103.17-42.74,134.12-266.76,143-462.78S891.22,221.05,833.74,194.52Z"/><circle class="cls-3" cx="613.99" cy="410.53" r="155.71" transform="translate(-110.46 554.4) rotate(-45)"/><circle class="cls-7" cx="600.9" cy="401.81" r="155.71" transform="translate(105.45 928.17) rotate(-80.5)"/><circle class="cls-8" cx="660.78" cy="417.99" r="78.86" transform="translate(-56.44 729.36) rotate(-55.78)"/><path class="cls-9" d="M700.75,410.94a40.59,40.59,0,1,1-47-32.92A40.59,40.59,0,0,1,700.75,410.94Z"/><path class="cls-7" d="M736.16,426.51a25,25,0,1,1-29-20.3A25,25,0,0,1,736.16,426.51Z"/><path class="cls-10" d="M565.76,202s-16.36-43.62-48-61.06-6.55-45.79,8.72-42.52,33.8,73,48,67.6,16.35-63.24-1.09-78.5S557,42.76,581,40.58s32.71,22.9,31.62,40.34-9.81,64.33,3.27,66.51,45.79-16.35,45.79-34.89,18.54-27.25,25.08-21.8,19.62,17.44,8.72,29.43-18.52,11-49.06,38.16c-9.81,8.73-22.9,37.07-22.9,37.07Z"/><path class="cls-9" d="M812.83,568.11s-5.68,12.33-31.47,25.58c7.16,14.62,13.67,28.77,14.52,33.57,2,11.24-27.92,26.57-49.85,24.53-10.51-1-17.57-19.3-22.09-38.58-27.68,6.17-63.65,10.87-110.52,12.14-57.63,1.57-98.18-3.06-126.78-10-2.36,16.58-6,35.55-10.82,40.47-9,9.2-42.87-3.06-51.84-16.34-4.57-6.76,2.21-27.5,10-46.26-11.54-8.64-14-15.62-14-15.62s-115.66,221,183.46,232.14S812.83,568.11,812.83,568.11Z"/><path class="cls-11" d="M611.42,728.41c-67.45-16.64-133.33,10-173.14,32.26,30.38,26.5,81.56,46,165.17,49.12,135.45,5.05,191.16-44,211.58-99.26C710.81,669.61,611.42,728.41,611.42,728.41Z"/><path class="cls-7" d="M424,639.53c9,13.28,42.87,25.54,51.84,16.34,4.81-4.92,8.46-23.89,10.82-40.47-26.73-6.44-43-14.87-52.68-22.13C426.19,612,419.41,632.77,424,639.53Z"/><path class="cls-7" d="M746,651.79c21.93,2,51.85-13.29,49.85-24.53-.85-4.8-7.36-19-14.52-33.57-13.2,6.79-31.71,13.79-57.42,19.52C728.46,632.49,735.52,650.81,746,651.79Z"/><path class="cls-3" d="M573.71,836.35s213.74,40.53,274.13-101.7C847.84,734.65,808.11,883.24,573.71,836.35Z"/></g></svg>