<svg data-name="Layer 1" xmlns="http://www.w3.org/2000/svg" viewBox="0 0 72.62 45.56"><rect width="72.62" height="45.56" rx="18.23" ry="18.23" fill="#73c9b9"/><path d="M18.77 34.45V10.56L35.1 27.64V12.06h3.35v23.75l-16.32-17v15.68zm23.98-7.17a7 7 0 012.19-5.2 7.72 7.72 0 0110.7 0 7.56 7.56 0 010 10.63 7.48 7.48 0 01-5.41 2.13 7.16 7.16 0 01-5.32-2.17 7.33 7.33 0 01-2.16-5.39zm3.34.06a4.74 4.74 0 001.13 3.35 4.4 4.4 0 006.12 0 5.33 5.33 0 000-6.59 4 4 0 00-3.06-1.24 3.94 3.94 0 00-3 1.24 4.53 4.53 0 00-1.19 3.24z" fill="#fff"/></svg>