<svg data-name="Layer 1" xmlns="http://www.w3.org/2000/svg" viewBox="0 0 124.05 45.56"><rect width="124.05" height="45.56" rx="12" ry="12" fill="#73c9b9"/><path d="M28.8 14.45l-3 1.77a5.26 5.26 0 00-1.6-1.9 3.82 3.82 0 00-2.05-.5 3.75 3.75 0 00-2.54.87 2.69 2.69 0 00-1 2.15c0 1.19.89 2.16 2.66 2.88l2.44 1a10.35 10.35 0 014.36 2.94 6.65 6.65 0 011.37 4.25 7.45 7.45 0 01-2.25 5.57 7.71 7.71 0 01-5.62 2.22 7.49 7.49 0 01-5.25-1.89 8.62 8.62 0 01-2.55-5.3l3.73-.82a6.34 6.34 0 00.89 3 4.2 4.2 0 006.19.43 4 4 0 001.14-2.93 3.85 3.85 0 00-.2-1.3 3.32 3.32 0 00-.61-1.1 5.11 5.11 0 00-1.09-.93 10 10 0 00-1.58-.83l-2.36-1q-5-2.13-5-6.21a5.88 5.88 0 012.11-4.61 7.63 7.63 0 015.24-1.87c2.79-.01 4.99 1.37 6.57 4.11zm7.96 5.38v8.85q0 3.84 3 3.84t3-3.84v-8.85h3.56v8.93a10.08 10.08 0 01-.45 3.2 5.34 5.34 0 01-1.54 2.17 7.48 7.48 0 01-9.17 0 5.42 5.42 0 01-1.57-2.17 9 9 0 01-.44-3.2v-8.93zM54.43 8.56v13.11a6.69 6.69 0 0110 .11 8.36 8.36 0 012.08 5.77 8.51 8.51 0 01-2.09 5.89 6.85 6.85 0 01-10 .25v1.62h-3.56V8.56zm8.47 19.15a5.33 5.33 0 00-1.2-3.61 3.85 3.85 0 00-3.05-1.43 4.09 4.09 0 00-3.2 1.38 5.09 5.09 0 00-1.22 3.51 5.21 5.21 0 001.2 3.59 4 4 0 003.17 1.38 3.92 3.92 0 003.07-1.38 5.07 5.07 0 001.23-3.49zm7.41-7.88h3.57v1.43a7.57 7.57 0 011.75-1.46 4.34 4.34 0 011.95-.39 4.72 4.72 0 014.13 2.28 5.36 5.36 0 014.55-2.28q5.21 0 5.21 6.31v9.54h-3.58v-8.57a6.55 6.55 0 00-.54-3.13 2 2 0 00-1.82-.94 2.33 2.33 0 00-2.15 1.11 7.25 7.25 0 00-.67 3.56v8h-3.58v-8.52q0-4.12-2.37-4.12a2.36 2.36 0 00-2.19 1.13 7 7 0 00-.69 3.54v8h-3.57zm25.12-6.41a2.32 2.32 0 012.31-2.29 2.2 2.2 0 011.64.68 2.16 2.16 0 01.69 1.63 2.21 2.21 0 01-.69 1.64 2.16 2.16 0 01-1.63.69 2.34 2.34 0 01-2.32-2.35zm4.1 6.41v15.43h-3.57V19.83zm8.18 3.33v12.1h-3.58v-12.1h-1.5v-3.33h1.5v-5.65h3.56v5.65h2.77v3.33z" fill="#fff"/></svg>