<svg data-name="Layer 1" xmlns="http://www.w3.org/2000/svg" viewBox="0 0 72.62 45.56"><rect width="72.62" height="45.56" rx="18.23" ry="18.23" fill="#73c9b9"/><path d="M21.3 24.78l-7.31-12.72h3.89L23 21.01l5.13-8.95h3.88l-7.33 12.72v9.67H21.3zm23.62 3.37H34.8a4.33 4.33 0 001.13 2.77 3.46 3.46 0 002.57 1 3.35 3.35 0 002-.58 8.34 8.34 0 001.78-2.15l2.75 1.54a10.36 10.36 0 01-1.34 1.86 7.23 7.23 0 01-1.53 1.28 6 6 0 01-1.75.73 8.31 8.31 0 01-2.05.23 6.63 6.63 0 01-5.07-2 7.59 7.59 0 01-1.92-5.42 7.81 7.81 0 011.86-5.42 7.06 7.06 0 019.89-.06 7.81 7.81 0 011.8 5.47zm-3.35-2.66a3.12 3.12 0 00-3.29-2.61 3.36 3.36 0 00-1.11.18 3 3 0 00-.95.52 3.42 3.42 0 00-.74.82 4 4 0 00-.46 1.09zm15.13-2.76L54 24.17c-.42-.87-1-1.31-1.58-1.31a1.08 1.08 0 00-.77.3 1 1 0 00-.32.76c0 .54.63 1.08 1.89 1.61a11.1 11.1 0 013.49 2.06 3.52 3.52 0 01.9 2.54 4.44 4.44 0 01-1.51 3.43 5.42 5.42 0 01-8.57-2.16l2.79-1.29a6.32 6.32 0 00.88 1.29 2 2 0 001.42.55c1.1 0 1.66-.5 1.66-1.51 0-.58-.43-1.12-1.28-1.62l-1-.48-1-.48a6.24 6.24 0 01-2-1.39 3.45 3.45 0 01-.74-2.28 4 4 0 011.26-3 4.41 4.41 0 013.14-1.21 4.29 4.29 0 014.04 2.75z" fill="#fff"/></svg>