<svg id="Layer_1" data-name="Layer 1" xmlns="http://www.w3.org/2000/svg" viewBox="0 0 1195.2 821.81"><defs><clipPath id="clip-path"><path class="cls-1" d="M287 268.57c-50.56 1.15-120.66 40.23-205.71 242.49S5.39 717.92 6.54 748.94s24.14 14.94 75.85-35.62S164 626 183.53 623.68s61.46-71.44 58-43.86 25.4-17.63 41.49-13-26 169.52 10.82 101.72a1336.53 1336.53 0 0177-124.12s26.43-65.5 63.21-70.1 57.46-16.09 32.17-50.56-80.44-96.54-80.44-96.54-47.35-58.63-97.39-58.63h-1.45"/></clipPath><clipPath id="clip-path-2"><path class="cls-1" d="M813.88 295.21C734.11 314.28 657.79 427 657.79 427s0 36.42 10.41 55.5 52 31.22 104.06 26 49-6.9 62.92 0 37.9-28.85 39.64-44.46 131.58 117.26 148.93 108.59 55.5 8.67 112.73 48.56 52 31.22 45.09-8.67-46.82-104.06-100.59-163c-49.7-54.52-167.61-156.48-248.17-156.48a81.25 81.25 0 00-18.93 2.12"/></clipPath><clipPath id="clip-path-3"><path class="cls-1" d="M800.15 163.37c10.46-36.28 3.61-75.83-10.24-86.1-17.47-12.94-21.83-.55-24.26 19.93s-16.27 43.57-29.92 49.42-27.31 10.73-27.31 10.73-19.51 2-12.67 24.38 25.25 32.34 33.06 32.87c18.06 1.22 60.34-13.05 71.34-51.23z"/></clipPath><clipPath id="clip-path-4"><path class="cls-1" d="M338.67 166c-13.77-35.16-10.61-75.18 2.23-86.68 16.18-14.51 21.67-2.57 26 17.59s20.23 41.88 34.37 46.44 28.18 8.15 28.18 8.15 19.6.13 14.88 23.1-22.18 34.55-29.88 35.79c-17.86 2.88-61.29-7.39-75.78-44.39z"/></clipPath><clipPath id="clip-path-5"><rect class="cls-1" x="135.93" y="5.47" width="809.09" height="811.1" rx="404.54" ry="404.54"/></clipPath><clipPath id="clip-path-6"><path class="cls-1" d="M287 268.57c-50.56 1.15-120.66 40.23-205.71 242.49S5.39 717.92 6.54 748.94s24.14 14.94 75.85-35.62S164 626 183.53 623.68s26.43 19.54 23 47.12-10.34 71.25 5.75 75.84 44.81-10.34 81.59-78.14a1336.53 1336.53 0 0177-124.12s26.43-65.5 63.21-70.1 57.46-16.09 32.17-50.56-80.44-96.54-80.44-96.54-47.35-58.63-97.39-58.63h-1.45"/></clipPath><clipPath id="clip-path-7"><path class="cls-1" d="M813.88 295.21C734.11 314.28 657.79 427 657.79 427s0 36.42 10.41 55.5 52 31.22 104.06 26 196 204.65 209.86 211.58 29.49 5.21 31.22-10.4-6.94-128.35 10.41-137 55.5 8.67 112.73 48.56 52 31.22 45.09-8.67-46.82-104.06-100.59-163c-49.7-54.52-167.61-156.48-248.17-156.48a81.25 81.25 0 00-18.93 2.12"/></clipPath><clipPath id="clip-path-10"><path class="cls-1" d="M694.35 337.59c-7.92 58.23-4.35 170.34-140.25 173.25S436 457.94 397.68 348.75c82.17 10.38 277.91 10.38 296.67-11.16z"/></clipPath><linearGradient id="linear-gradient" x1="540.48" y1="816.57" x2="540.48" y2="5.47" gradientUnits="userSpaceOnUse"><stop offset="0" stop-color="#fffce1"/><stop offset="1" stop-color="#fff"/></linearGradient><linearGradient id="linear-gradient-2" x1="559.78" y1="84.09" x2="559.78" y2="933.01" gradientUnits="userSpaceOnUse"><stop offset=".38" stop-color="#ffd064"/><stop offset=".99" stop-color="#fbb03f"/></linearGradient><style>.cls-1{fill:none}.cls-4{fill:#f68d3f}.cls-6{fill:#fdbe58}.cls-7{fill:#948f7f}.cls-8{clip-path:url(#clip-path-3)}.cls-9{fill:#777464}.cls-10{clip-path:url(#clip-path-4)}.cls-11{fill:#ffd164}.cls-21{fill:#fff}.cls-22{fill:#231f20}</style></defs><rect x="135.93" y="5.47" width="809.09" height="811.1" rx="404.54" ry="404.54" fill="url(#linear-gradient)"/><g clip-path="url(#clip-path)" id="Left_Wing" data-name="Left Wing"><path class="cls-4" transform="rotate(-30 243.864 524.263)" d="M-98.47 178.98H586.2v690.56H-98.47z"/></g><g clip-path="url(#clip-path-2)" id="Right_Wing" data-name="Right Wing"><path class="cls-4" d="M657.79 293.09h535.93v433.98H657.79z"/></g><path class="cls-6" d="M202.28 421.06c-21.13 17.95-65.82 54.3-94.36 93.1-17.36-1.25-38.47 1-39.58 13-1.45 15.61 8.09 21.27 19.09 22.76-5.4 14-7.11 27.69-3.27 40.31-12.67 6.87-13.2 19.9-2.08 31.4 7.21 7.46 18.37 5.48 27.88.36a71.49 71.49 0 0031.74 10.81c1 7.94 4.52 14.89 13.34 16.65 17.94 3.59 25.93-7.44 30-21.22 30.9-8.59 58.09-25.76 67.7-32.49 19.41-13.59 56.29-231 56.29-231s-85.58 38.33-106.75 56.32zm843.35 141.23c-21.25-51.15-70.38-106.45-98-136.86-59.81-65.95-124.86-102.69-124.86-102.69S776.86 439 798.21 474c31.37 51.34 98 146.53 160.36 179.37-2.85 12.66-5.5 33.54 6.09 39.5 10 5.15 29.92-1.66 33.51-28a54.09 54.09 0 0027.47-6.84c7.76 8.56 19.41 16.39 32.2 7.68 9.72-6.62 7.79-24.11-6.21-36.12a60.29 60.29 0 004.26-23.48c7.4 1.18 14.6-.38 19.42-7.85 7.87-12.26-9.74-31.08-29.68-35.97z"/><g id="Horns"><path class="cls-7" d="M800.15 163.37c10.46-36.28 3.61-75.83-10.24-86.1-17.47-12.94-21.83-.55-24.26 19.93s-16.27 43.57-29.92 49.42-27.31 10.73-27.31 10.73-19.51 2-12.67 24.38 25.25 32.34 33.06 32.87c18.06 1.22 60.34-13.05 71.34-51.23z"/><g class="cls-8"><path class="cls-9" d="M776.19 99.54c-6.78 1.21-13.38-2.41-13.38-2.41.85-2.86 1.7-2.79 1.7-2.79l.64-2.92s7.31 2.67 11.22 2.07A42.63 42.63 0 00788.66 90s-3.77 8-12.47 9.54zm-7.42 25.01c-6.89.12-13.07-4.45-13.07-4.45.85-2.86 1.7-2.79 1.7-2.79l.63-2.92s7.11 3.69 11.07 3.85c7.92.33 20.22-2.26 20.22-2.26s-11.49 8.41-20.55 8.57zm-9.57 26.1c-6.8-1.13-19.83-8.22-19.83-8.22a29.86 29.86 0 012.06-5.1l3.16-1.7s13.91 7.25 17.84 7.73c7.93 1 23.46 1.63 23.46 1.63s-14.08 7.77-26.69 5.66z"/></g><path class="cls-7" d="M338.67 166c-13.77-35.16-10.61-75.18 2.23-86.68 16.18-14.51 21.67-2.57 26 17.59s20.23 41.88 34.37 46.44 28.18 8.15 28.18 8.15 19.6.13 14.88 23.1-22.18 34.55-29.88 35.79c-17.86 2.88-61.29-7.39-75.78-44.39z"/><g class="cls-10"><path class="cls-9" d="M356.61 100.21c6.87.58 13.1-3.64 13.1-3.64-1.11-2.77-1.95-2.57-1.95-2.57l-.9-2.85s-3.47 3.36-11 3.1a66.53 66.53 0 01-11.7-1.25 16.16 16.16 0 0012.45 7.21zm9.71 24.21c8.44-1.37 12.61-5.64 12.61-5.64-1.11-2.77-1.95-2.62-1.95-2.62l-.91-2.85s-3.46 3.32-10.66 4.86c-7.75 1.67-20 2.5-20 2.5s9.73 5.58 20.91 3.75zm11.95 25.11c6.67-1.76 19-10 19-10a29.58 29.58 0 00-2.52-4.88l-3.3-1.4a52.31 52.31 0 01-17.05 9.35c-7.56 2.58-23.21 3.79-23.21 3.79s14.72 6.4 27.08 3.14z"/></g></g><g id="Hair"><path class="cls-11" d="M515.13 18.28c18.38 3.88 11 39.14 15.53 58.23s7.44 32.67 7.44 33.32-51.11 6.8-51.11 6.8-3.24-29.77-3.24-38.5 3.63-65.72 31.38-59.85z"/><path class="cls-11" d="M559.78 49c14.06-3.78 16.49 8.74 18.76 16.82s7.77 22.65 15.21 25.24-18.75 13.6-18.75 13.6l-44.33-6.8S538.1 54.83 559.78 49z"/></g><g clip-path="url(#clip-path-5)"><path d="M855.16 677.21s37.58 108.14 101 148.26S1069 871.18 1077.23 893s-48.67 83.91-178.08 73.55S734.8 895.35 723.16 885s132-207.79 132-207.79z" fill="#f7a03b"/><g clip-path="url(#clip-path-6)" id="Left_Wing-2" data-name="Left Wing"><path class="cls-4" transform="rotate(-30 243.864 524.263)" d="M-98.47 178.98H586.2v690.56H-98.47z"/></g><g clip-path="url(#clip-path-7)" id="Right_Wing-2" data-name="Right Wing"><path class="cls-4" d="M657.79 293.09h535.93v433.98H657.79z"/></g><path class="cls-6" d="M202.28 421.06c-21.13 17.95-65.82 54.3-94.36 93.1-17.36-1.25-38.47 1-39.58 13-1.45 15.61 8.09 21.27 19.09 22.76-5.4 14-7.11 27.69-3.27 40.31-12.67 6.87-13.2 19.9-2.08 31.4 7.21 7.46 18.37 5.48 27.88.36a71.49 71.49 0 0031.74 10.81c1 7.94 4.52 14.89 13.34 16.65 17.94 3.59 25.93-7.44 30-21.22 30.9-8.59 58.09-25.76 67.7-32.49 19.41-13.59 56.29-231 56.29-231s-85.58 38.33-106.75 56.32zm843.35 141.23c-21.25-51.15-70.38-106.45-98-136.86-59.81-65.95-124.86-102.69-124.86-102.69S776.86 439 798.21 474c31.37 51.34 98 146.53 160.36 179.37-2.85 12.66-5.5 33.54 6.09 39.5 10 5.15 29.92-1.66 33.51-28a54.09 54.09 0 0027.47-6.84c7.76 8.56 19.41 16.39 32.2 7.68 9.72-6.62 7.79-24.11-6.21-36.12a60.29 60.29 0 004.26-23.48c7.4 1.18 14.6-.38 19.42-7.85 7.87-12.26-9.74-31.08-29.68-35.97z"/><path d="M822.47 809.29S843.83 976.23 839 994.67s-195.13 15.49-206.73 5.82c-17.47-14.56-8.73-137.82-5.82-160.14s196.02-31.06 196.02-31.06z" fill="#fbab3b" id="Legs"/><g id="Horns-2" data-name="Horns"><path class="cls-7" d="M800.15 163.37c10.46-36.28 3.61-75.83-10.24-86.1-17.47-12.94-21.83-.55-24.26 19.93s-16.27 43.57-29.92 49.42-27.31 10.73-27.31 10.73-19.51 2-12.67 24.38 25.25 32.34 33.06 32.87c18.06 1.22 60.34-13.05 71.34-51.23z"/><g class="cls-8"><path class="cls-9" d="M776.19 99.54c-6.78 1.21-13.38-2.41-13.38-2.41.85-2.86 1.7-2.79 1.7-2.79l.64-2.92s7.31 2.67 11.22 2.07A42.63 42.63 0 00788.66 90s-3.77 8-12.47 9.54zm-7.42 25.01c-6.89.12-13.07-4.45-13.07-4.45.85-2.86 1.7-2.79 1.7-2.79l.63-2.92s7.11 3.69 11.07 3.85c7.92.33 20.22-2.26 20.22-2.26s-11.49 8.41-20.55 8.57zm-9.57 26.1c-6.8-1.13-19.83-8.22-19.83-8.22a29.86 29.86 0 012.06-5.1l3.16-1.7s13.91 7.25 17.84 7.73c7.93 1 23.46 1.63 23.46 1.63s-14.08 7.77-26.69 5.66z"/></g><path class="cls-7" d="M338.67 166c-13.77-35.16-10.61-75.18 2.23-86.68 16.18-14.51 21.67-2.57 26 17.59s20.23 41.88 34.37 46.44 28.18 8.15 28.18 8.15 19.6.13 14.88 23.1-22.18 34.55-29.88 35.79c-17.86 2.88-61.29-7.39-75.78-44.39z"/><g class="cls-10"><path class="cls-9" d="M356.61 100.21c6.87.58 13.1-3.64 13.1-3.64-1.11-2.77-1.95-2.57-1.95-2.57l-.9-2.85s-3.47 3.36-11 3.1a66.53 66.53 0 01-11.7-1.25 16.16 16.16 0 0012.45 7.21zm9.71 24.21c8.44-1.37 12.61-5.64 12.61-5.64-1.11-2.77-1.95-2.62-1.95-2.62l-.91-2.85s-3.46 3.32-10.66 4.86c-7.75 1.67-20 2.5-20 2.5s9.73 5.58 20.91 3.75zm11.95 25.11c6.67-1.76 19-10 19-10a29.58 29.58 0 00-2.52-4.88l-3.3-1.4a52.31 52.31 0 01-17.05 9.35c-7.56 2.58-23.21 3.79-23.21 3.79s14.72 6.4 27.08 3.14z"/></g></g><path d="M441 118.89c41.45-27.13 161.76-66 258.82 7.76s218.7 364.94 188.94 570.7-181.14 238.12-344.19 235.53S223.63 839.7 226.22 687 298.69 212.06 441 118.89z" fill="url(#linear-gradient-2)" id="Body"/><path class="cls-11" d="M365.33 165.39c-.66-12.6 20.92-8.43 31.33 4.52s-29.38 32.36-31.33-4.52z"/><path class="cls-11" d="M379 133.77c9.59-11.64 33.94 8.74 36.85 20.38s-19.66 24.76-30.08 6C379 148 376 137.33 379 133.77zm362.6-.32c8.32-2.84 16.09 12.61 13.5 27.49 7.35-1 15-1 17.56 2.59s9.78 18-13.84 44.49-47.31-35.76-47.31-35.76 16.83-34.26 30.09-38.81z"/><g id="Hair-2" data-name="Hair"><path class="cls-11" d="M515.13 18.28c18.38 3.88 11 39.14 15.53 58.23s7.44 32.67 7.44 33.32-51.11 6.8-51.11 6.8-3.24-29.77-3.24-38.5 3.63-65.72 31.38-59.85z"/><path class="cls-11" d="M559.78 49c14.06-3.78 16.49 8.74 18.76 16.82s7.77 22.65 15.21 25.24-18.75 13.6-18.75 13.6l-44.33-6.8S538.1 54.83 559.78 49z"/></g><g id="Mouth"><path d="M694.35 337.59c-7.92 58.23-4.35 170.34-140.25 173.25S436 457.94 397.68 348.75c82.17 10.38 277.91 10.38 296.67-11.16z" fill="#b5534e"/><g clip-path="url(#clip-path-10)"><path d="M480.61 455c24.84-11.65 49.37-11.65 68.63 0 15.37-22.32 91.31-37.66 127.11-12s-65.7 122.37-203.9 76.09c-24.31-8.09-16.94-52.29 8.16-64.09z" fill="#ee7977"/><path class="cls-21" d="M659.57 346.81l-66.12 2.31s7.25 36.51 13.07 40.4 40.19 4.06 46.56-6.12c5.25-8.4 6.49-36.59 6.49-36.59zm-227.83 0l64.58 2.26s-2.87 38-8.69 41.9-35.91 4.85-44.65-3.4c-11.25-10.57-11.24-40.76-11.24-40.76z"/></g></g><path class="cls-22" d="M376.8 304.25s7.58-15.16 23.07-21.42l3.29 9.93a87.56 87.56 0 00-26.36 11.49zm15.82 12.19a35.2 35.2 0 0116.8-22.9l4.13 9.12s-10.47 3.07-20.93 13.78zm306.78-12.19s-7.58-15.16-23.06-21.42l-3.3 9.93a87.45 87.45 0 0126.36 11.49zm-15.81 12.19a35.2 35.2 0 00-16.81-22.9l-4.12 9.12s10.46 3.07 20.93 13.78z" id="Eyes"/><g id="LeftEye"><path class="cls-21" d="M530.3 253.83a71.18 71.18 0 11-71.18-71.18 71.17 71.17 0 0171.18 71.18z"/><path class="cls-22" d="M514.54 262.73a24.06 24.06 0 11-24-24.05 24.06 24.06 0 0124 24.05z"/><path class="cls-21" d="M485.54 249a8.16 8.16 0 11-8.15-8.15 8.15 8.15 0 018.15 8.15z"/></g><g id="RightEye"><path class="cls-21" d="M688.37 253.83a71.18 71.18 0 11-71.18-71.18 71.17 71.17 0 0171.18 71.18z"/><path class="cls-22" d="M662 262.73a24.06 24.06 0 11-24.06-24.05A24.06 24.06 0 01662 262.73z"/><path class="cls-21" d="M633.5 246.83a8.16 8.16 0 11-8.15-8.15 8.15 8.15 0 018.15 8.15z"/></g></g></svg>