<svg data-name="Layer 1" xmlns="http://www.w3.org/2000/svg" viewBox="0 0 78.51 54.14"><path d="M68.85 17.82H39.19V9.06a4.06 4.06 0 00-6.36-3.34l-26.08 18a4 4 0 000 6.67l26.08 18a4.06 4.06 0 006.36-3.34v-8.69h29.66a4.66 4.66 0 004.66-4.66v-9.17a4.66 4.66 0 00-4.66-4.71z" stroke="#fff" stroke-miterlimit="10" stroke-width="10" fill="#72c8b8"/><path d="M69.13 17.9H39.47V9.14a4.06 4.06 0 00-6.36-3.34l-26.08 18a4.07 4.07 0 000 6.68l26.08 18a4.06 4.06 0 006.36-3.34v-8.78h29.66a4.66 4.66 0 004.66-4.66v-9.14a4.66 4.66 0 00-4.66-4.66z" fill="#72c8b8"/></svg>