<svg data-name="Layer 1" xmlns="http://www.w3.org/2000/svg" viewBox="0 0 74.85 51.51"><path d="M68.1 22.42L43.93 5.73a4.05 4.05 0 00-6.36 3.33v7.92H9.66A4.66 4.66 0 005 21.64v8.23a4.66 4.66 0 004.66 4.66h27.91v7.91a4.06 4.06 0 006.36 3.34L68.1 29.05a4 4 0 000-6.63z" stroke="#fff" stroke-miterlimit="10" stroke-width="10" fill="#72c8b8"/><path d="M68.38 22.49L44.21 5.8a4.06 4.06 0 00-6.36 3.34v7.91H9.94a4.66 4.66 0 00-4.66 4.66v8.23a4.66 4.66 0 004.66 4.66h27.89v7.91a4.06 4.06 0 006.36 3.34l24.17-16.69a4.06 4.06 0 00.02-6.67z" fill="#72c8b8"/></svg>